<?xml version="1.0" encoding="utf-8"?>
<svg xmlns="http://www.w3.org/2000/svg" xmlns:xlink="http://www.w3.org/1999/xlink" style="margin: auto; background: none; display: block; shape-rendering: auto;" width="94px" height="94px" viewBox="0 0 100 100" preserveAspectRatio="xMidYMid">
<g transform="rotate(0 50 50)">
  <rect x="49.5" y="34" rx="0" ry="0" width="1" height="12" fill="#ff0000">
    <animate attributeName="opacity" values="1;0" keyTimes="0;1" dur="0.625s" begin="-0.6142241379310344s" repeatCount="indefinite"></animate>
  </rect>
</g><g transform="rotate(6.206896551724138 50 50)">
  <rect x="49.5" y="34" rx="0" ry="0" width="1" height="12" fill="#ff0000">
    <animate attributeName="opacity" values="1;0" keyTimes="0;1" dur="0.625s" begin="-0.6034482758620688s" repeatCount="indefinite"></animate>
  </rect>
</g><g transform="rotate(12.413793103448276 50 50)">
  <rect x="49.5" y="34" rx="0" ry="0" width="1" height="12" fill="#ff0000">
    <animate attributeName="opacity" values="1;0" keyTimes="0;1" dur="0.625s" begin="-0.5926724137931034s" repeatCount="indefinite"></animate>
  </rect>
</g><g transform="rotate(18.620689655172413 50 50)">
  <rect x="49.5" y="34" rx="0" ry="0" width="1" height="12" fill="#ff0000">
    <animate attributeName="opacity" values="1;0" keyTimes="0;1" dur="0.625s" begin="-0.5818965517241379s" repeatCount="indefinite"></animate>
  </rect>
</g><g transform="rotate(24.82758620689655 50 50)">
  <rect x="49.5" y="34" rx="0" ry="0" width="1" height="12" fill="#ff0000">
    <animate attributeName="opacity" values="1;0" keyTimes="0;1" dur="0.625s" begin="-0.5711206896551724s" repeatCount="indefinite"></animate>
  </rect>
</g><g transform="rotate(31.03448275862069 50 50)">
  <rect x="49.5" y="34" rx="0" ry="0" width="1" height="12" fill="#ff0000">
    <animate attributeName="opacity" values="1;0" keyTimes="0;1" dur="0.625s" begin="-0.5603448275862069s" repeatCount="indefinite"></animate>
  </rect>
</g><g transform="rotate(37.241379310344826 50 50)">
  <rect x="49.5" y="34" rx="0" ry="0" width="1" height="12" fill="#ff0000">
    <animate attributeName="opacity" values="1;0" keyTimes="0;1" dur="0.625s" begin="-0.5495689655172413s" repeatCount="indefinite"></animate>
  </rect>
</g><g transform="rotate(43.44827586206897 50 50)">
  <rect x="49.5" y="34" rx="0" ry="0" width="1" height="12" fill="#ff0000">
    <animate attributeName="opacity" values="1;0" keyTimes="0;1" dur="0.625s" begin="-0.5387931034482758s" repeatCount="indefinite"></animate>
  </rect>
</g><g transform="rotate(49.6551724137931 50 50)">
  <rect x="49.5" y="34" rx="0" ry="0" width="1" height="12" fill="#ff0000">
    <animate attributeName="opacity" values="1;0" keyTimes="0;1" dur="0.625s" begin="-0.5280172413793103s" repeatCount="indefinite"></animate>
  </rect>
</g><g transform="rotate(55.86206896551724 50 50)">
  <rect x="49.5" y="34" rx="0" ry="0" width="1" height="12" fill="#ff0000">
    <animate attributeName="opacity" values="1;0" keyTimes="0;1" dur="0.625s" begin="-0.5172413793103448s" repeatCount="indefinite"></animate>
  </rect>
</g><g transform="rotate(62.06896551724138 50 50)">
  <rect x="49.5" y="34" rx="0" ry="0" width="1" height="12" fill="#ff0000">
    <animate attributeName="opacity" values="1;0" keyTimes="0;1" dur="0.625s" begin="-0.5064655172413792s" repeatCount="indefinite"></animate>
  </rect>
</g><g transform="rotate(68.27586206896552 50 50)">
  <rect x="49.5" y="34" rx="0" ry="0" width="1" height="12" fill="#ff0000">
    <animate attributeName="opacity" values="1;0" keyTimes="0;1" dur="0.625s" begin="-0.49568965517241376s" repeatCount="indefinite"></animate>
  </rect>
</g><g transform="rotate(74.48275862068965 50 50)">
  <rect x="49.5" y="34" rx="0" ry="0" width="1" height="12" fill="#ff0000">
    <animate attributeName="opacity" values="1;0" keyTimes="0;1" dur="0.625s" begin="-0.48491379310344823s" repeatCount="indefinite"></animate>
  </rect>
</g><g transform="rotate(80.6896551724138 50 50)">
  <rect x="49.5" y="34" rx="0" ry="0" width="1" height="12" fill="#ff0000">
    <animate attributeName="opacity" values="1;0" keyTimes="0;1" dur="0.625s" begin="-0.4741379310344827s" repeatCount="indefinite"></animate>
  </rect>
</g><g transform="rotate(86.89655172413794 50 50)">
  <rect x="49.5" y="34" rx="0" ry="0" width="1" height="12" fill="#ff0000">
    <animate attributeName="opacity" values="1;0" keyTimes="0;1" dur="0.625s" begin="-0.4633620689655172s" repeatCount="indefinite"></animate>
  </rect>
</g><g transform="rotate(93.10344827586206 50 50)">
  <rect x="49.5" y="34" rx="0" ry="0" width="1" height="12" fill="#ff0000">
    <animate attributeName="opacity" values="1;0" keyTimes="0;1" dur="0.625s" begin="-0.45258620689655166s" repeatCount="indefinite"></animate>
  </rect>
</g><g transform="rotate(99.3103448275862 50 50)">
  <rect x="49.5" y="34" rx="0" ry="0" width="1" height="12" fill="#ff0000">
    <animate attributeName="opacity" values="1;0" keyTimes="0;1" dur="0.625s" begin="-0.44181034482758613s" repeatCount="indefinite"></animate>
  </rect>
</g><g transform="rotate(105.51724137931035 50 50)">
  <rect x="49.5" y="34" rx="0" ry="0" width="1" height="12" fill="#ff0000">
    <animate attributeName="opacity" values="1;0" keyTimes="0;1" dur="0.625s" begin="-0.43103448275862066s" repeatCount="indefinite"></animate>
  </rect>
</g><g transform="rotate(111.72413793103448 50 50)">
  <rect x="49.5" y="34" rx="0" ry="0" width="1" height="12" fill="#ff0000">
    <animate attributeName="opacity" values="1;0" keyTimes="0;1" dur="0.625s" begin="-0.42025862068965514s" repeatCount="indefinite"></animate>
  </rect>
</g><g transform="rotate(117.93103448275862 50 50)">
  <rect x="49.5" y="34" rx="0" ry="0" width="1" height="12" fill="#ff0000">
    <animate attributeName="opacity" values="1;0" keyTimes="0;1" dur="0.625s" begin="-0.4094827586206896s" repeatCount="indefinite"></animate>
  </rect>
</g><g transform="rotate(124.13793103448276 50 50)">
  <rect x="49.5" y="34" rx="0" ry="0" width="1" height="12" fill="#ff0000">
    <animate attributeName="opacity" values="1;0" keyTimes="0;1" dur="0.625s" begin="-0.3987068965517241s" repeatCount="indefinite"></animate>
  </rect>
</g><g transform="rotate(130.3448275862069 50 50)">
  <rect x="49.5" y="34" rx="0" ry="0" width="1" height="12" fill="#ff0000">
    <animate attributeName="opacity" values="1;0" keyTimes="0;1" dur="0.625s" begin="-0.38793103448275856s" repeatCount="indefinite"></animate>
  </rect>
</g><g transform="rotate(136.55172413793105 50 50)">
  <rect x="49.5" y="34" rx="0" ry="0" width="1" height="12" fill="#ff0000">
    <animate attributeName="opacity" values="1;0" keyTimes="0;1" dur="0.625s" begin="-0.37715517241379304s" repeatCount="indefinite"></animate>
  </rect>
</g><g transform="rotate(142.75862068965517 50 50)">
  <rect x="49.5" y="34" rx="0" ry="0" width="1" height="12" fill="#ff0000">
    <animate attributeName="opacity" values="1;0" keyTimes="0;1" dur="0.625s" begin="-0.36637931034482757s" repeatCount="indefinite"></animate>
  </rect>
</g><g transform="rotate(148.9655172413793 50 50)">
  <rect x="49.5" y="34" rx="0" ry="0" width="1" height="12" fill="#ff0000">
    <animate attributeName="opacity" values="1;0" keyTimes="0;1" dur="0.625s" begin="-0.35560344827586204s" repeatCount="indefinite"></animate>
  </rect>
</g><g transform="rotate(155.17241379310346 50 50)">
  <rect x="49.5" y="34" rx="0" ry="0" width="1" height="12" fill="#ff0000">
    <animate attributeName="opacity" values="1;0" keyTimes="0;1" dur="0.625s" begin="-0.3448275862068965s" repeatCount="indefinite"></animate>
  </rect>
</g><g transform="rotate(161.3793103448276 50 50)">
  <rect x="49.5" y="34" rx="0" ry="0" width="1" height="12" fill="#ff0000">
    <animate attributeName="opacity" values="1;0" keyTimes="0;1" dur="0.625s" begin="-0.334051724137931s" repeatCount="indefinite"></animate>
  </rect>
</g><g transform="rotate(167.58620689655172 50 50)">
  <rect x="49.5" y="34" rx="0" ry="0" width="1" height="12" fill="#ff0000">
    <animate attributeName="opacity" values="1;0" keyTimes="0;1" dur="0.625s" begin="-0.32327586206896547s" repeatCount="indefinite"></animate>
  </rect>
</g><g transform="rotate(173.79310344827587 50 50)">
  <rect x="49.5" y="34" rx="0" ry="0" width="1" height="12" fill="#ff0000">
    <animate attributeName="opacity" values="1;0" keyTimes="0;1" dur="0.625s" begin="-0.31249999999999994s" repeatCount="indefinite"></animate>
  </rect>
</g><g transform="rotate(180 50 50)">
  <rect x="49.5" y="34" rx="0" ry="0" width="1" height="12" fill="#ff0000">
    <animate attributeName="opacity" values="1;0" keyTimes="0;1" dur="0.625s" begin="-0.3017241379310344s" repeatCount="indefinite"></animate>
  </rect>
</g><g transform="rotate(186.20689655172413 50 50)">
  <rect x="49.5" y="34" rx="0" ry="0" width="1" height="12" fill="#ff0000">
    <animate attributeName="opacity" values="1;0" keyTimes="0;1" dur="0.625s" begin="-0.29094827586206895s" repeatCount="indefinite"></animate>
  </rect>
</g><g transform="rotate(192.41379310344828 50 50)">
  <rect x="49.5" y="34" rx="0" ry="0" width="1" height="12" fill="#ff0000">
    <animate attributeName="opacity" values="1;0" keyTimes="0;1" dur="0.625s" begin="-0.2801724137931034s" repeatCount="indefinite"></animate>
  </rect>
</g><g transform="rotate(198.6206896551724 50 50)">
  <rect x="49.5" y="34" rx="0" ry="0" width="1" height="12" fill="#ff0000">
    <animate attributeName="opacity" values="1;0" keyTimes="0;1" dur="0.625s" begin="-0.2693965517241379s" repeatCount="indefinite"></animate>
  </rect>
</g><g transform="rotate(204.82758620689654 50 50)">
  <rect x="49.5" y="34" rx="0" ry="0" width="1" height="12" fill="#ff0000">
    <animate attributeName="opacity" values="1;0" keyTimes="0;1" dur="0.625s" begin="-0.2586206896551724s" repeatCount="indefinite"></animate>
  </rect>
</g><g transform="rotate(211.0344827586207 50 50)">
  <rect x="49.5" y="34" rx="0" ry="0" width="1" height="12" fill="#ff0000">
    <animate attributeName="opacity" values="1;0" keyTimes="0;1" dur="0.625s" begin="-0.24784482758620688s" repeatCount="indefinite"></animate>
  </rect>
</g><g transform="rotate(217.24137931034483 50 50)">
  <rect x="49.5" y="34" rx="0" ry="0" width="1" height="12" fill="#ff0000">
    <animate attributeName="opacity" values="1;0" keyTimes="0;1" dur="0.625s" begin="-0.23706896551724135s" repeatCount="indefinite"></animate>
  </rect>
</g><g transform="rotate(223.44827586206895 50 50)">
  <rect x="49.5" y="34" rx="0" ry="0" width="1" height="12" fill="#ff0000">
    <animate attributeName="opacity" values="1;0" keyTimes="0;1" dur="0.625s" begin="-0.22629310344827583s" repeatCount="indefinite"></animate>
  </rect>
</g><g transform="rotate(229.6551724137931 50 50)">
  <rect x="49.5" y="34" rx="0" ry="0" width="1" height="12" fill="#ff0000">
    <animate attributeName="opacity" values="1;0" keyTimes="0;1" dur="0.625s" begin="-0.21551724137931033s" repeatCount="indefinite"></animate>
  </rect>
</g><g transform="rotate(235.86206896551724 50 50)">
  <rect x="49.5" y="34" rx="0" ry="0" width="1" height="12" fill="#ff0000">
    <animate attributeName="opacity" values="1;0" keyTimes="0;1" dur="0.625s" begin="-0.2047413793103448s" repeatCount="indefinite"></animate>
  </rect>
</g><g transform="rotate(242.06896551724137 50 50)">
  <rect x="49.5" y="34" rx="0" ry="0" width="1" height="12" fill="#ff0000">
    <animate attributeName="opacity" values="1;0" keyTimes="0;1" dur="0.625s" begin="-0.19396551724137928s" repeatCount="indefinite"></animate>
  </rect>
</g><g transform="rotate(248.27586206896552 50 50)">
  <rect x="49.5" y="34" rx="0" ry="0" width="1" height="12" fill="#ff0000">
    <animate attributeName="opacity" values="1;0" keyTimes="0;1" dur="0.625s" begin="-0.18318965517241378s" repeatCount="indefinite"></animate>
  </rect>
</g><g transform="rotate(254.48275862068965 50 50)">
  <rect x="49.5" y="34" rx="0" ry="0" width="1" height="12" fill="#ff0000">
    <animate attributeName="opacity" values="1;0" keyTimes="0;1" dur="0.625s" begin="-0.17241379310344826s" repeatCount="indefinite"></animate>
  </rect>
</g><g transform="rotate(260.6896551724138 50 50)">
  <rect x="49.5" y="34" rx="0" ry="0" width="1" height="12" fill="#ff0000">
    <animate attributeName="opacity" values="1;0" keyTimes="0;1" dur="0.625s" begin="-0.16163793103448273s" repeatCount="indefinite"></animate>
  </rect>
</g><g transform="rotate(266.8965517241379 50 50)">
  <rect x="49.5" y="34" rx="0" ry="0" width="1" height="12" fill="#ff0000">
    <animate attributeName="opacity" values="1;0" keyTimes="0;1" dur="0.625s" begin="-0.1508620689655172s" repeatCount="indefinite"></animate>
  </rect>
</g><g transform="rotate(273.1034482758621 50 50)">
  <rect x="49.5" y="34" rx="0" ry="0" width="1" height="12" fill="#ff0000">
    <animate attributeName="opacity" values="1;0" keyTimes="0;1" dur="0.625s" begin="-0.1400862068965517s" repeatCount="indefinite"></animate>
  </rect>
</g><g transform="rotate(279.3103448275862 50 50)">
  <rect x="49.5" y="34" rx="0" ry="0" width="1" height="12" fill="#ff0000">
    <animate attributeName="opacity" values="1;0" keyTimes="0;1" dur="0.625s" begin="-0.1293103448275862s" repeatCount="indefinite"></animate>
  </rect>
</g><g transform="rotate(285.51724137931035 50 50)">
  <rect x="49.5" y="34" rx="0" ry="0" width="1" height="12" fill="#ff0000">
    <animate attributeName="opacity" values="1;0" keyTimes="0;1" dur="0.625s" begin="-0.11853448275862068s" repeatCount="indefinite"></animate>
  </rect>
</g><g transform="rotate(291.7241379310345 50 50)">
  <rect x="49.5" y="34" rx="0" ry="0" width="1" height="12" fill="#ff0000">
    <animate attributeName="opacity" values="1;0" keyTimes="0;1" dur="0.625s" begin="-0.10775862068965517s" repeatCount="indefinite"></animate>
  </rect>
</g><g transform="rotate(297.9310344827586 50 50)">
  <rect x="49.5" y="34" rx="0" ry="0" width="1" height="12" fill="#ff0000">
    <animate attributeName="opacity" values="1;0" keyTimes="0;1" dur="0.625s" begin="-0.09698275862068964s" repeatCount="indefinite"></animate>
  </rect>
</g><g transform="rotate(304.13793103448273 50 50)">
  <rect x="49.5" y="34" rx="0" ry="0" width="1" height="12" fill="#ff0000">
    <animate attributeName="opacity" values="1;0" keyTimes="0;1" dur="0.625s" begin="-0.08620689655172413s" repeatCount="indefinite"></animate>
  </rect>
</g><g transform="rotate(310.3448275862069 50 50)">
  <rect x="49.5" y="34" rx="0" ry="0" width="1" height="12" fill="#ff0000">
    <animate attributeName="opacity" values="1;0" keyTimes="0;1" dur="0.625s" begin="-0.0754310344827586s" repeatCount="indefinite"></animate>
  </rect>
</g><g transform="rotate(316.55172413793105 50 50)">
  <rect x="49.5" y="34" rx="0" ry="0" width="1" height="12" fill="#ff0000">
    <animate attributeName="opacity" values="1;0" keyTimes="0;1" dur="0.625s" begin="-0.0646551724137931s" repeatCount="indefinite"></animate>
  </rect>
</g><g transform="rotate(322.7586206896552 50 50)">
  <rect x="49.5" y="34" rx="0" ry="0" width="1" height="12" fill="#ff0000">
    <animate attributeName="opacity" values="1;0" keyTimes="0;1" dur="0.625s" begin="-0.05387931034482758s" repeatCount="indefinite"></animate>
  </rect>
</g><g transform="rotate(328.9655172413793 50 50)">
  <rect x="49.5" y="34" rx="0" ry="0" width="1" height="12" fill="#ff0000">
    <animate attributeName="opacity" values="1;0" keyTimes="0;1" dur="0.625s" begin="-0.043103448275862065s" repeatCount="indefinite"></animate>
  </rect>
</g><g transform="rotate(335.17241379310343 50 50)">
  <rect x="49.5" y="34" rx="0" ry="0" width="1" height="12" fill="#ff0000">
    <animate attributeName="opacity" values="1;0" keyTimes="0;1" dur="0.625s" begin="-0.03232758620689655s" repeatCount="indefinite"></animate>
  </rect>
</g><g transform="rotate(341.37931034482756 50 50)">
  <rect x="49.5" y="34" rx="0" ry="0" width="1" height="12" fill="#ff0000">
    <animate attributeName="opacity" values="1;0" keyTimes="0;1" dur="0.625s" begin="-0.021551724137931032s" repeatCount="indefinite"></animate>
  </rect>
</g><g transform="rotate(347.58620689655174 50 50)">
  <rect x="49.5" y="34" rx="0" ry="0" width="1" height="12" fill="#ff0000">
    <animate attributeName="opacity" values="1;0" keyTimes="0;1" dur="0.625s" begin="-0.010775862068965516s" repeatCount="indefinite"></animate>
  </rect>
</g><g transform="rotate(353.7931034482759 50 50)">
  <rect x="49.5" y="34" rx="0" ry="0" width="1" height="12" fill="#ff0000">
    <animate attributeName="opacity" values="1;0" keyTimes="0;1" dur="0.625s" begin="0s" repeatCount="indefinite"></animate>
  </rect>
</g>
<!-- [ldio] generated by https://loading.io/ --></svg>